<mxfile host="65bd71144e">
    <diagram id="M8D8TWM9LZKEyP71SuEA" name="Page-1">
        <mxGraphModel dx="2715" dy="753" grid="1" gridSize="10" guides="1" tooltips="1" connect="1" arrows="1" fold="1" page="1" pageScale="1" pageWidth="850" pageHeight="1100" background="#ffffff" math="0" shadow="0">
            <root>
                <mxCell id="0"/>
                <mxCell id="1" parent="0"/>
                <mxCell id="2" value="&lt;font color=&quot;#000000&quot;&gt;Main&lt;/font&gt;" style="rounded=0;whiteSpace=wrap;html=1;fillColor=#f5f5f5;strokeColor=#666666;labelBorderColor=default;strokeWidth=2;fontColor=#333333;" vertex="1" parent="1">
                    <mxGeometry x="230" y="130" width="190" height="40" as="geometry"/>
                </mxCell>
                <mxCell id="25" value="&lt;font color=&quot;#000000&quot;&gt;+window: JFrame&lt;br&gt;+gui: GUI&lt;br&gt;&lt;/font&gt;" style="rounded=0;whiteSpace=wrap;html=1;fillColor=#f5f5f5;strokeColor=#666666;align=left;labelBorderColor=default;strokeWidth=2;fontColor=#333333;" vertex="1" parent="1">
                    <mxGeometry x="230" y="170" width="190" height="40" as="geometry"/>
                </mxCell>
                <mxCell id="26" value="&lt;font color=&quot;#000000&quot;&gt;+main(args: String[])&lt;br&gt;&lt;/font&gt;" style="rounded=0;whiteSpace=wrap;html=1;fillColor=#f5f5f5;strokeColor=#666666;align=left;labelBorderColor=default;strokeWidth=2;fontColor=#333333;" vertex="1" parent="1">
                    <mxGeometry x="230" y="210" width="190" height="40" as="geometry"/>
                </mxCell>
                <mxCell id="27" value="&lt;font color=&quot;#000000&quot;&gt;GUI&lt;/font&gt;" style="rounded=0;whiteSpace=wrap;html=1;fillColor=#f5f5f5;strokeColor=#666666;labelBorderColor=default;strokeWidth=2;fontColor=#333333;" vertex="1" parent="1">
                    <mxGeometry x="350" y="330" width="190" height="40" as="geometry"/>
                </mxCell>
                <mxCell id="28" value="&lt;font color=&quot;#000000&quot;&gt;+gridSize: Dimension&lt;br&gt;+grid: Grid&lt;br&gt;+size: int&lt;br&gt;+frameWidth: int&lt;br&gt;+frameHeight: int&lt;br&gt;+gridWidth: int&lt;br&gt;+gridHeight: int&lt;br&gt;+squareSideLength: int&lt;br&gt;+gridArray: boolean[][]&lt;br&gt;+clickedArray: int[][]&lt;br&gt;+leftClick: boolean&lt;br&gt;+action: boolean&lt;br&gt;+column: int&lt;br&gt;+row: int&lt;br&gt;&lt;/font&gt;" style="rounded=0;whiteSpace=wrap;html=1;fillColor=#f5f5f5;strokeColor=#666666;align=left;labelBorderColor=default;strokeWidth=2;fontColor=#333333;" vertex="1" parent="1">
                    <mxGeometry x="350" y="370" width="190" height="210" as="geometry"/>
                </mxCell>
                <mxCell id="29" value="&lt;font color=&quot;#000000&quot;&gt;+main(args: String[])&lt;br&gt;&lt;/font&gt;" style="rounded=0;whiteSpace=wrap;html=1;fillColor=#f5f5f5;strokeColor=#666666;align=left;labelBorderColor=default;strokeWidth=2;fontColor=#333333;" vertex="1" parent="1">
                    <mxGeometry x="-50" y="330" width="190" height="40" as="geometry"/>
                </mxCell>
            </root>
        </mxGraphModel>
    </diagram>
</mxfile>